<svg width="56" height="56" viewBox="0 0 56 56" xmlns="http://www.w3.org/2000/svg"><path d="M28 56c15.464 0 28-12.536 28-28S43.464 0 28 0 0 12.536 0 28s12.536 28 28 28z" fill="#fff"/><path d="M28 40.174c6.724 0 12.174-5.45 12.174-12.174 0-6.723-5.45-12.174-12.174-12.174-6.723 0-12.174 5.45-12.174 12.174 0 6.723 5.45 12.174 12.174 12.174z" fill="#E74A3F"/><path d="M55.5 28c0 15.188-12.312 27.5-27.5 27.5S.5 43.188.5 28 12.812.5 28 .5 55.5 12.812 55.5 28z" stroke="#000" stroke-opacity=".1" fill="none"/></svg>