<svg width="56" height="56" viewBox="0 0 56 56" xmlns="http://www.w3.org/2000/svg"><path d="M28 56c15.464 0 28-12.536 28-28S43.464 0 28 0 0 12.536 0 28s12.536 28 28 28z" fill="#F2C55D"/><path d="M52.806 15C48.123 6.082 38.772 0 28 0S7.878 6.082 3.194 15h49.612zM0 27.982a28.627 28.627 0 000 .036v-.036zM3.194 41C7.878 49.918 17.228 56 28 56s20.123-6.082 24.806-15H3.194z" fill="#E74A3F"/><path d="M55.5 28c0 15.188-12.312 27.5-27.5 27.5S.5 43.188.5 28 12.812.5 28 .5 55.5 12.812 55.5 28z" stroke="#000" stroke-opacity=".1" fill="none"/></svg>