<svg width="56" height="56" viewBox="0 0 56 56" xmlns="http://www.w3.org/2000/svg"><path d="M28 56c15.464 0 28-12.536 28-28S43.464 0 28 0 0 12.536 0 28s12.536 28 28 28z" fill="#fff"/><path d="M54.258 37.74A27.937 27.937 0 0056 28c0-3.425-.616-6.706-1.742-9.74H1.742A27.94 27.94 0 000 28c0 3.425.616 6.706 1.742 9.74L28 40.173l26.258-2.435z" fill="#154CCF"/><path d="M28 56c12.039 0 22.302-7.599 26.258-18.26H1.742C5.698 48.4 15.96 56 28 56z" fill="#E74A3F"/><path d="M55.5 28c0 15.188-12.312 27.5-27.5 27.5S.5 43.188.5 28 12.812.5 28 .5 55.5 12.812 55.5 28z" stroke="#000" stroke-opacity=".1" fill="none"/></svg>