<svg width="56" height="56" viewBox="0 0 56 56" xmlns="http://www.w3.org/2000/svg"><path d="M28 56c15.464 0 28-12.536 28-28S43.464 0 28 0 0 12.536 0 28s12.536 28 28 28z" fill="#E74A3F"/><path d="M15.323 17.04l2.418 7.438h7.82l-6.322 4.605 2.417 7.437-6.333-4.593-6.332 4.593 2.428-7.437-6.333-4.605h7.82l2.417-7.437zM33.195 43.367l-1.848-2.275-2.735 1.061 1.586-2.46-1.848-2.287 2.833.755L32.78 35.7l.153 2.931 2.843.755-2.745 1.05.164 2.931zM36.87 36.695l.875-2.8L35.35 32.2l2.931-.044.864-2.8.952 2.778 2.931-.032-2.351 1.75.94 2.778-2.395-1.696-2.352 1.761zM41.825 20.552l-1.29 2.636 2.1 2.045-2.9-.416-1.29 2.625-.503-2.887-2.91-.416 2.604-1.367-.503-2.898 2.1 2.045 2.592-1.367zM33.272 12.567l-.219 2.92 2.724 1.105-2.855.7-.208 2.931-1.542-2.493-2.855.7 1.892-2.242-1.553-2.483 2.724 1.104 1.892-2.242z" fill="#F2C55D"/><path d="M55.5 28c0 15.188-12.312 27.5-27.5 27.5S.5 43.188.5 28 12.812.5 28 .5 55.5 12.812 55.5 28z" stroke="#000" stroke-opacity=".1" fill="none"/></svg>