<svg width="56" height="56" viewBox="0 0 56 56" xmlns="http://www.w3.org/2000/svg"><path d="M28 56c15.464 0 28-12.536 28-28S43.464 0 28 0 0 12.536 0 28s12.536 28 28 28z" fill="#fff"/><path d="M56 28c0-12.039-7.599-22.302-18.26-26.258v52.517C48.4 50.302 56 40.039 56 28z" fill="#E74A3F"/><path d="M0 28c0 12.039 7.599 22.302 18.26 26.258V1.742C7.6 5.698 0 15.96 0 28z" fill="#154CCF"/><path d="M55.5 28c0 15.188-12.312 27.5-27.5 27.5S.5 43.188.5 28 12.812.5 28 .5 55.5 12.812 55.5 28z" stroke="#000" stroke-opacity=".1" fill="none"/></svg>